<svg width="89" height="127" viewBox="0 0 89 127" fill="none" xmlns="http://www.w3.org/2000/svg">
<g id="Group 56">
<g id="Group 43">
<path id="Vector" d="M46.9216 80.4029L5.17815 80.0045C5.17815 80.0045 4.79095 82.1459 5.593 84.3071C6.33052 86.2991 9.30824 89.1675 9.30824 89.1675L12.8022 97.4838L15.6785 116.875L16.2317 122.483C16.2317 122.483 18.2783 126.616 29.8481 126.616C41.4179 126.616 43.4368 122.333 43.4368 122.333L43.8332 118.728L47.0506 98.6989L53.4855 86.6975C53.4855 86.6975 54.896 85.6318 55.7165 83.361C56.288 81.7774 55.9838 79.5464 55.9838 79.8053C55.9838 80.0643 46.9216 80.4029 46.9216 80.4029Z" fill="#E27F13"/>
<path id="Vector_2" d="M30.5856 101.418C39.9613 101.477 44.4878 100.84 47.2443 98.7483C49.3185 97.1747 50.3326 95.3919 51.7431 92.8522C53.6975 89.3364 53.6145 86.6373 53.6145 86.6373C53.6145 86.6373 45.7969 90.9897 30.3367 90.7706C15.1623 90.5615 7.02194 86.6572 7.02194 86.6572C7.02194 86.6572 7.75946 90.5216 8.98558 93.0315C10.4053 95.9198 12.9958 97.7524 12.9958 97.7524C12.9958 97.7524 17.9095 101.338 30.5856 101.418ZM14.6091 102.264C15.5403 102.633 16.5082 102.981 16.5082 102.981L17.8911 120.779C17.8911 120.779 15.4112 119.873 15.1254 118.917C14.9595 118.369 14.1851 112.463 13.6319 107.662C13.3369 105.093 13.0696 103.36 12.9958 102.443C12.9129 101.447 13.7333 101.916 14.6091 102.264ZM24.5748 104.774C21.4404 104.346 18.9421 103.778 18.9421 103.778C18.9881 104.147 20.1221 121.347 20.1221 121.347C20.1221 121.347 21.339 122.184 24.7592 122.642L24.5748 104.774ZM32.7705 105.063C30.4381 105.202 27.8383 105.023 26.9718 104.993L26.898 122.851C27.8015 122.911 28.7971 122.941 29.9126 122.931C30.8714 122.921 31.7748 122.861 32.6506 122.781L32.7705 105.063ZM43.5013 103.907C43.0588 107.971 42.1277 116.775 41.759 120.411C43.5013 119.724 44.1928 119.365 44.4232 118.419C44.6537 117.473 46.4699 103.947 46.516 103.21C46.5528 102.742 46.35 102.663 45.2253 103.17C44.5154 103.509 44.1743 103.649 43.5013 103.907ZM41.298 104.276C39.6939 104.565 37.5828 104.854 35.0937 105.073L34.7894 122.492C36.7992 122.134 38.5139 121.606 39.9152 121.048C40.2932 116.845 41.0491 107.593 41.298 104.276Z" fill="#F5B03E"/>
</g>
<g id="Group 42">
<path id="Vector_3" d="M88.0847 7.38473V0.784729C48.4847 0.784729 16.5113 32.7581 16.5113 72.0647H23.1113C23.1113 36.4247 52.1513 7.38473 88.0847 7.38473Z" fill="#FF6666"/>
<path id="Vector_4" d="M23.1113 72.0648H29.7113C29.7113 40.0915 55.818 13.9848 88.0846 13.9848V7.38483C52.1513 7.38483 23.1113 36.4248 23.1113 72.0648Z" fill="#FFFB80"/>
<path id="Vector_5" d="M88.0846 20.5849V13.9849C55.8179 13.9849 29.7113 39.9449 29.7113 72.0649H36.3113C36.3113 43.6116 59.4846 20.5849 88.0846 20.5849Z" fill="#A3E66F"/>
<path id="Vector_6" d="M36.3112 72.0645H42.9112C43.0579 47.2779 63.1512 27.1845 88.0846 27.1845V20.5845C59.4846 20.5845 36.3112 43.6112 36.3112 72.0645Z" fill="#66C2FF"/>
<path id="Vector_7" d="M88.0848 33.7846V27.1846C63.1515 27.1846 43.0581 47.278 43.0581 72.0646H49.6581C49.6581 50.9446 66.8181 33.7846 88.0848 33.7846Z" fill="#9180FF"/>
<path id="Vector_8" d="M11.9648 86.878C10.9381 86.878 9.91145 86.7313 8.88479 86.438C4.77812 85.118 1.99146 81.3046 1.99146 77.0513C1.99146 74.2646 3.16479 71.478 5.36479 69.5713L7.12479 68.2513L7.71145 65.9046C9.32479 60.1846 14.7515 56.2246 20.6181 56.2246C21.2048 56.2246 21.7914 56.2246 22.5248 56.3713C23.1114 56.518 23.5514 56.518 24.1381 56.6646L24.4315 56.2246C26.7781 51.9713 31.4715 49.1846 36.3114 49.1846C43.7914 49.1846 49.9514 55.3446 49.9514 62.8246V64.1446C50.5381 64.438 51.1248 64.5846 51.7114 64.878C55.3781 66.9313 57.5781 70.8913 57.5781 74.998C57.5781 80.4246 53.7648 85.118 48.4848 86.438C47.6048 86.5846 46.7248 86.7313 45.8448 86.7313L11.9648 86.878Z" fill="white"/>
<path id="Vector_9" d="M36.6047 51.238C43.0581 51.238 48.3381 56.3713 48.3381 62.8246V63.7046C45.6981 63.8513 43.2047 65.0246 41.2981 66.638C42.7647 65.758 44.3781 65.3179 46.1381 65.3179C46.7247 65.3179 47.4581 65.3179 48.0447 65.4646C49.0714 65.6113 50.0981 66.0513 50.9781 66.638C53.9114 68.2513 55.8181 71.4779 55.8181 74.9979C55.8181 79.5446 52.5914 83.5046 48.1914 84.5313C47.4581 84.6779 46.7247 84.8246 45.9914 84.8246H11.9647C11.0847 84.8246 10.2047 84.6779 9.47141 84.3846C6.24475 83.3579 4.04475 80.4246 4.04475 76.9046C4.04475 74.5579 5.07141 72.3579 6.83141 70.8913C7.56475 70.1579 8.44475 69.7179 9.47141 69.4246C10.3514 69.1313 11.2314 68.9846 12.1114 68.9846C14.6047 68.9846 16.9514 70.1579 18.4181 72.0646C16.6581 68.9846 13.5781 66.7846 9.91141 66.4913C11.2314 61.7979 15.6314 58.278 20.9114 58.278C21.4981 58.278 22.0847 58.2779 22.5247 58.4246C23.5514 58.5713 24.5781 58.8646 25.6047 59.3046C29.1247 60.918 31.7647 64.1446 32.3514 68.1046C32.3514 63.558 30.0047 59.7446 26.4847 57.3979C28.3914 53.5846 32.2047 51.238 36.6047 51.238ZM36.6047 47.278C31.1781 47.278 26.1914 50.0646 23.4047 54.4646H23.1114C22.2314 54.3179 21.6447 54.318 20.9114 54.318C14.0181 54.318 8.00475 58.8646 6.09808 65.4646L5.65808 67.0779C5.21808 67.3713 4.63141 67.8113 4.19141 68.1046C2.90255 69.1797 1.86638 70.5256 1.15661 72.0466C0.446827 73.5675 0.080867 75.2262 0.0847473 76.9046C0.0847473 82.0379 3.31141 86.5846 8.29808 88.1979C9.47141 88.6379 10.7914 88.7846 12.1114 88.7846H46.1381C47.1647 88.7846 48.1914 88.6379 49.2181 88.4913C55.5247 87.0246 59.9247 81.5979 59.9247 75.1446C59.9247 70.3046 57.2847 65.7579 53.0314 63.2646C52.8847 63.1179 52.5914 62.9713 52.4447 62.9713V62.8246C52.2981 54.1713 45.2581 47.278 36.6047 47.278Z" fill="#75D6FF"/>
</g>
</g>
</svg>
